<svg width="67" height="21" viewBox="0 0 67 21" fill="none" xmlns="http://www.w3.org/2000/svg">
<path d="M6.05267 7.32978V6.88518C4.56749 6.88518 2.99945 7.20212 2.99945 8.9508C2.99945 9.8367 3.45895 10.4365 4.24683 10.4365C4.82534 10.4365 5.34215 10.0821 5.66832 9.50545C6.07295 8.79563 6.05267 8.12874 6.05267 7.32978ZM8.12408 12.3293C7.98832 12.4504 7.79185 12.4592 7.63868 12.3788C6.95702 11.8132 6.8357 11.5502 6.46017 11.0109C5.33333 12.1598 4.53554 12.5032 3.07438 12.5032C1.34656 12.5032 0 11.4379 0 9.30626C0 7.64122 0.904683 6.50771 2.19063 5.95307C3.30579 5.46335 4.86281 5.37641 6.05267 5.24105V4.97583C6.05267 4.48721 6.09014 3.91056 5.8043 3.48907C5.55262 3.1116 5.07328 2.95533 4.65124 2.95533C3.86887 2.95533 3.16915 3.35701 2.99945 4.18788C2.96419 4.37276 2.82865 4.55434 2.64353 4.56315L0.650138 4.34965C0.482645 4.31224 0.297521 4.17578 0.343802 3.91936C0.803306 1.50709 2.98512 0.780762 4.93774 0.780762C5.93719 0.780762 7.24298 1.04598 8.03163 1.80202C9.03107 2.73303 8.93587 3.97659 8.93587 5.33019V8.52711C8.93587 9.48784 9.33455 9.90933 9.71008 10.4288C9.84286 10.6125 9.87174 10.8348 9.70457 10.9735C9.28562 11.3224 8.54028 11.9717 8.12992 12.3348H8.12441L8.12408 12.3293ZM32.9806 7.32978V6.88518C31.4919 6.88518 29.9239 7.20212 29.9239 8.9508C29.9239 9.8367 30.3856 10.4365 31.1745 10.4365C31.7498 10.4365 32.2699 10.0821 32.596 9.50545C33.0004 8.79563 32.9806 8.12874 32.9806 7.32978ZM35.0511 12.3293C34.9156 12.4504 34.7195 12.4592 34.5663 12.3788C33.8842 11.8132 33.7597 11.5502 33.3872 11.0109C32.261 12.1598 31.461 12.5032 30.0021 12.5032C28.271 12.5032 26.9277 11.4379 26.9277 9.30626C26.9277 7.64122 27.8291 6.50771 29.1172 5.95307C30.2324 5.46335 31.7894 5.37641 32.9806 5.24105V4.97583C32.9806 4.48721 33.0181 3.91056 32.7283 3.48907C32.4803 3.1116 32.001 2.95533 31.5756 2.95533C30.7933 2.95533 30.0969 3.35701 29.9261 4.18788C29.8919 4.37276 29.7564 4.55434 29.5679 4.56315L27.5779 4.34965C27.4104 4.31224 27.2219 4.17578 27.2715 3.91936C27.7277 1.50709 29.9117 0.780762 31.8655 0.780762C32.8649 0.780762 34.1707 1.04598 34.9586 1.80202C35.9591 2.73303 35.8633 3.97659 35.8633 5.33019V8.52711C35.8633 9.48784 36.2621 9.90933 36.6379 10.4288C36.7679 10.6125 36.7966 10.8348 36.6269 10.9735C36.2082 11.3224 35.4621 11.9717 35.0522 12.3348L35.0511 12.3293ZM60.347 12.3579H58.3018C58.0958 12.3436 57.9316 12.1796 57.9316 11.9772V1.44656C57.9492 1.25397 58.12 1.10321 58.3283 1.10321H60.2313C60.4109 1.11421 60.5586 1.23306 60.5982 1.39814V3.00815H60.6357C61.2109 1.56761 62.0164 0.880906 63.4357 0.880906C64.3569 0.880906 65.255 1.21325 65.8335 2.12226C66.3701 2.96414 66.3701 4.38047 66.3701 5.39952V12.0267C66.347 12.2116 66.1773 12.3579 65.9745 12.3579H63.915C63.7277 12.3436 63.5712 12.205 63.5514 12.0267V6.30853C63.5514 5.15741 63.6836 3.47256 62.2654 3.47256C61.7652 3.47256 61.3068 3.80711 61.0776 4.31444C60.7889 4.95822 60.7514 5.59871 60.7514 6.30853V11.9772C60.7514 12.1884 60.5696 12.3579 60.3503 12.3579H60.347ZM51.697 0.880906C54.7449 0.880906 56.3945 3.49567 56.3945 6.81915C56.3945 10.0304 54.5719 12.578 51.697 12.578C48.7041 12.578 47.0755 9.96326 47.0755 6.7069C47.0755 3.42854 48.7251 0.880906 51.697 0.880906ZM51.7146 3.03127C50.2006 3.03127 50.1058 5.09028 50.1058 6.37456C50.1058 7.66103 50.086 10.4079 51.697 10.4079C53.2893 10.4079 53.3642 8.19257 53.3642 6.84226C53.3642 5.95307 53.3267 4.89219 53.0578 4.04922C52.8275 3.31629 52.368 3.03127 51.7146 3.03127ZM13.7344 12.3579H11.6804C11.4843 12.3436 11.3278 12.1973 11.3135 12.0091V1.48177C11.3135 1.27048 11.4898 1.10321 11.7091 1.10321H13.6242C13.8237 1.11421 13.9824 1.26498 13.9967 1.45536V2.83208H14.0342C14.5344 1.50158 15.4733 0.880906 16.7383 0.880906C18.0242 0.880906 18.8275 1.50158 19.405 2.83208C19.9019 1.50158 21.0314 0.880906 22.2424 0.880906C23.103 0.880906 24.0452 1.23636 24.6193 2.03202C25.2694 2.91791 25.1372 4.20549 25.1372 5.33349V11.9772C25.1372 12.1884 24.9609 12.3579 24.7405 12.3579H22.6898C22.4848 12.3436 22.3196 12.1796 22.3196 11.9772V6.39767C22.3196 5.95307 22.3603 4.84597 22.2623 4.42449C22.1091 3.71687 21.6496 3.51878 21.0545 3.51878C20.5576 3.51878 20.0375 3.85003 19.827 4.38047C19.6165 4.912 19.6364 5.8001 19.6364 6.39767V11.9772C19.6364 12.1884 19.4601 12.3579 19.2408 12.3579H17.1901C16.9818 12.3436 16.8198 12.1796 16.8198 11.9772V6.39767C16.8198 5.22344 17.0127 3.49567 15.5537 3.49567C14.0782 3.49567 14.1355 5.18052 14.1355 6.39767V11.9772C14.1355 12.1884 13.9592 12.3579 13.7399 12.3579H13.7344ZM38.3625 2.96193V1.45536C38.3625 1.22756 38.5355 1.07459 38.7438 1.07459H45.4953C45.7113 1.07459 45.8854 1.23086 45.8854 1.45536V2.74514C45.8854 2.96193 45.7003 3.24476 45.3763 3.69156L41.8777 8.68008C43.178 8.64817 44.5499 8.84186 45.7289 9.50545C45.9945 9.65512 46.0672 9.87411 46.0871 10.0909V11.6976C46.0871 11.9166 45.8446 12.1741 45.5901 12.041C43.5129 10.9537 40.7537 10.8348 38.4573 12.0531C38.2237 12.1796 37.978 11.9254 37.978 11.7064V10.1801C37.978 9.93464 37.978 9.51646 38.227 9.14449L42.2799 3.3394H38.7526C38.5355 3.3394 38.3625 3.18643 38.3625 2.96193ZM42.7769 14.5688C42.2854 13.9393 39.5174 14.2717 38.2755 14.418C37.8975 14.4643 37.8391 14.1352 38.1807 13.8986C40.3846 12.3502 44.0011 12.797 44.4231 13.3165C44.8452 13.8381 44.3129 17.4598 42.2424 19.1876C41.924 19.4528 41.6209 19.3119 41.762 18.9598C42.2281 17.7999 43.2705 15.2005 42.7769 14.5688ZM41.1736 16.4C41.8116 15.9268 41.2661 15.2236 40.6127 15.4998C36.2909 17.3321 31.5912 18.2147 27.3179 18.2147C20.9829 18.2147 14.8496 16.4815 9.88914 13.5993C9.45587 13.3451 9.13212 13.7897 9.49355 14.1154C14.0893 18.261 20.1653 20.7547 26.9135 20.7547C31.7267 20.7547 37.3168 19.2393 41.1736 16.4Z" fill="#333333"/>
</svg>
