<svg width="50" height="21" viewBox="0 0 50 21" fill="none" xmlns="http://www.w3.org/2000/svg">
<path d="M31.5867 11.3712C29.3177 11.4413 27.9064 11.854 27.9064 13.3414C27.9064 14.307 28.6784 15.3504 30.6355 15.3504C33.2632 15.3504 34.6589 13.9176 34.6589 11.5815V11.3245C33.7388 11.3245 32.6082 11.3323 31.5867 11.3712ZM37.1618 14.4627C37.1618 15.1869 37.1852 15.9111 37.2398 16.5496H34.9162C34.8538 16.0123 34.8304 15.4906 34.8304 14.9766C33.5751 16.5185 32.078 16.9624 30.0039 16.9624C26.924 16.9624 25.2788 15.3348 25.2788 13.4582C25.2788 10.7327 27.5244 9.77486 31.4074 9.6892C32.4756 9.66584 33.6686 9.65805 34.6589 9.65805V9.39329C34.6589 7.57111 33.4893 6.82355 31.462 6.82355C29.9571 6.82355 28.8421 7.44652 28.7329 8.52114H26.1053C26.386 5.84237 29.2008 5.1649 31.6803 5.1649C34.6511 5.1649 37.1618 6.21616 37.1618 9.35436V14.4627ZM9.94932 10.0396C9.76998 5.78008 3.12671 5.63212 2.58869 10.0396H9.94932ZM2.54191 11.7061C2.81481 16.2459 8.71735 16.1759 9.65302 13.3881H12.2339C11.7349 16.0668 8.88109 16.9779 6.43275 16.9779C1.97271 16.9779 0 14.525 0 11.2155C0 7.57111 2.04289 5.17268 6.47174 5.17268C10.0039 5.17268 12.5848 7.01823 12.5848 11.0442V11.7061H2.54191ZM18.9942 15.2648C21.3177 15.2648 22.9084 13.5905 22.9084 11.0753C22.9084 8.55228 21.3177 6.88585 18.9942 6.88585C16.6862 6.88585 15.0799 8.55228 15.0799 11.0753C15.0799 13.5905 16.6862 15.2648 18.9942 15.2648ZM12.5848 0.780762H15.0877V7.05716C16.3119 5.60097 18.0039 5.17268 19.6647 5.17268C22.4483 5.17268 25.5439 7.04938 25.5439 11.1065C25.5439 14.5016 23.0877 16.9779 19.6179 16.9779C17.8012 16.9779 16.1014 16.3316 15.0409 15.0389C15.0409 15.5529 15.0097 16.0668 14.9552 16.5574H12.499C12.538 15.7631 12.5848 14.782 12.5848 13.9799V0.780762ZM49.8947 5.5854L42.1598 20.7547H39.3606L41.5829 16.5418L35.7661 5.5854H38.6901L42.9708 14.1434L47.2437 5.5854H49.8947Z" fill="#333333"/>
</svg>
