<svg width="150" height="24" viewBox="0 0 150 24" fill="none" xmlns="http://www.w3.org/2000/svg">
<path d="M12.3048 10.2799C12.3048 10.6803 12.2817 11.1038 12.2356 11.5504H2.14296C2.21977 12.7979 2.64222 13.7758 3.41031 14.4842C4.19376 15.1772 5.1385 15.5238 6.24455 15.5238C7.15089 15.5238 7.90362 15.3159 8.50272 14.9C9.11719 14.4688 9.54732 13.899 9.79311 13.1906H12.0513C11.7133 14.4072 11.0374 15.4006 10.0235 16.1706C9.00966 16.9252 7.75 17.3025 6.24455 17.3025C5.04633 17.3025 3.97101 17.033 3.01858 16.494C2.08152 15.955 1.34415 15.1926 0.806491 14.207C0.26883 13.206 0 12.0509 0 10.7419C0 9.43284 0.26115 8.2855 0.783449 7.29986C1.30575 6.31423 2.03543 5.5596 2.9725 5.03598C3.92492 4.49696 5.01561 4.22745 6.24455 4.22745C7.44276 4.22745 8.50272 4.48926 9.42443 5.01288C10.3461 5.5365 11.0528 6.26032 11.5443 7.18436C12.0513 8.09299 12.3048 9.12483 12.3048 10.2799ZM10.1387 9.84095C10.1387 9.04013 9.96209 8.3548 9.60877 7.78498C9.25545 7.19976 8.77155 6.76084 8.15708 6.46823C7.55798 6.16022 6.88974 6.00622 6.15238 6.00622C5.09242 6.00622 4.18607 6.34503 3.43335 7.02265C2.69599 7.70028 2.27354 8.63971 2.16601 9.84095H10.1387Z" fill="#333333"/>
<path d="M14.2891 10.7419C14.2891 9.43284 14.5503 8.2932 15.0726 7.32296C15.5949 6.33733 16.3169 5.575 17.2386 5.03598C18.1756 4.49696 19.2433 4.22745 20.4415 4.22745C21.993 4.22745 23.2681 4.60476 24.2666 5.35939C25.2804 6.11402 25.9487 7.16126 26.2713 8.50111H24.0131C23.798 7.73108 23.3756 7.12276 22.7458 6.67614C22.1313 6.22952 21.3632 6.00622 20.4415 6.00622C19.2433 6.00622 18.2755 6.42203 17.5381 7.25366C16.8008 8.06989 16.4321 9.23263 16.4321 10.7419C16.4321 12.2665 16.8008 13.4447 17.5381 14.2763C18.2755 15.1079 19.2433 15.5238 20.4415 15.5238C21.3632 15.5238 22.1313 15.3082 22.7458 14.8769C23.3602 14.4457 23.7827 13.8297 24.0131 13.0289H26.2713C25.9333 14.3225 25.2574 15.3621 24.2435 16.1475C23.2297 16.9175 21.9623 17.3025 20.4415 17.3025C19.2433 17.3025 18.1756 17.033 17.2386 16.494C16.3169 15.955 15.5949 15.1926 15.0726 14.207C14.5503 13.2214 14.2891 12.0663 14.2891 10.7419Z" fill="#333333"/>
<path d="M34.5763 17.3025C33.3935 17.3025 32.3182 17.033 31.3504 16.494C30.3979 15.955 29.6452 15.1926 29.0922 14.207C28.5545 13.206 28.2857 12.0509 28.2857 10.7419C28.2857 9.44824 28.5622 8.3086 29.1152 7.32296C29.6836 6.32193 30.4517 5.5596 31.4195 5.03598C32.3873 4.49696 33.4703 4.22745 34.6685 4.22745C35.8667 4.22745 36.9497 4.49696 37.9175 5.03598C38.8853 5.5596 39.6457 6.31423 40.1987 7.29986C40.7671 8.2855 41.0513 9.43284 41.0513 10.7419C41.0513 12.0509 40.7594 13.206 40.1757 14.207C39.6073 15.1926 38.8315 15.955 37.8484 16.494C36.8652 17.033 35.7746 17.3025 34.5763 17.3025ZM34.5763 15.4545C35.3291 15.4545 36.0357 15.2774 36.6963 14.9231C37.3568 14.5689 37.8868 14.0376 38.2862 13.3292C38.701 12.6208 38.9083 11.7583 38.9083 10.7419C38.9083 9.72545 38.7086 8.86302 38.3092 8.15459C37.9098 7.44617 37.3875 6.92255 36.7423 6.58374C36.0972 6.22952 35.3982 6.05242 34.6455 6.05242C33.8774 6.05242 33.1707 6.22952 32.5255 6.58374C31.8957 6.92255 31.3888 7.44617 31.0047 8.15459C30.6207 8.86302 30.4287 9.72545 30.4287 10.7419C30.4287 11.7737 30.613 12.6439 30.9817 13.3523C31.3657 14.0607 31.8727 14.592 32.5025 14.9462C33.1323 15.2851 33.8236 15.4545 34.5763 15.4545Z" fill="#333333"/>
<path d="M58.9934 4.20435C59.9766 4.20435 60.8522 4.41226 61.6203 4.82807C62.3883 5.22849 62.9951 5.83681 63.4406 6.65304C63.8861 7.46927 64.1089 8.4626 64.1089 9.63305V17.0946H62.035V9.93336C62.035 8.67051 61.7201 7.70798 61.0903 7.04575C60.4758 6.36813 59.6386 6.02932 58.5786 6.02932C57.488 6.02932 56.62 6.38353 55.9748 7.09195C55.3296 7.78498 55.007 8.79372 55.007 10.1182V17.0946H52.9332V9.93336C52.9332 8.67051 52.6183 7.70798 51.9884 7.04575C51.374 6.36813 50.5368 6.02932 49.4768 6.02932C48.3861 6.02932 47.5182 6.38353 46.873 7.09195C46.2278 7.78498 45.9052 8.79372 45.9052 10.1182V17.0946H43.8083V4.43536H45.9052V6.26032C46.32 5.5981 46.873 5.08988 47.5643 4.73567C48.2709 4.38146 49.0467 4.20435 49.8916 4.20435C50.9515 4.20435 51.8886 4.44306 52.7028 4.92048C53.5169 5.39789 54.1237 6.09862 54.5231 7.02265C54.8765 6.12942 55.4602 5.4364 56.2744 4.94358C57.0886 4.45076 57.9949 4.20435 58.9934 4.20435Z" fill="#333333"/>
<path d="M82.2954 0.877831V17.0946H78.3551V10.4185H72.2258V17.0946H68.2855V0.877831H72.2258V7.23056H78.3551V0.877831H82.2954Z" fill="#333333"/>
<path d="M97.2603 10.4416C97.2603 10.8112 97.2373 11.1962 97.1912 11.5966H88.2737C88.3352 12.3974 88.5886 13.0135 89.0341 13.4447C89.495 13.8605 90.0557 14.0684 90.7162 14.0684C91.6994 14.0684 92.383 13.6526 92.767 12.821H96.9608C96.7457 13.668 96.354 14.4303 95.7856 15.1079C95.2326 15.7856 94.5336 16.3169 93.6887 16.7019C92.8438 17.0869 91.8991 17.2794 90.8545 17.2794C89.5948 17.2794 88.4734 17.0099 87.4903 16.4709C86.5071 15.9319 85.739 15.1618 85.186 14.1608C84.633 13.1598 84.3565 11.9893 84.3565 10.6495C84.3565 9.30964 84.6253 8.13919 85.1629 7.13816C85.716 6.13712 86.4841 5.36709 87.4672 4.82807C88.4504 4.28905 89.5795 4.01954 90.8545 4.01954C92.0988 4.01954 93.2048 4.28135 94.1726 4.80497C95.1404 5.32859 95.8931 6.07552 96.4308 7.04575C96.9838 8.01599 97.2603 9.14793 97.2603 10.4416ZM93.2279 9.40204C93.2279 8.72441 92.9974 8.18539 92.5366 7.78498C92.0757 7.38457 91.4997 7.18436 90.8084 7.18436C90.1478 7.18436 89.5871 7.37687 89.1263 7.76188C88.6808 8.14689 88.4043 8.69361 88.2967 9.40204H93.2279Z" fill="#333333"/>
<path d="M103.279 0V17.0946H99.339V0H103.279Z" fill="#333333"/>
<path d="M110.075 6.02932C110.459 5.4287 110.989 4.94358 111.665 4.57396C112.341 4.20435 113.132 4.01954 114.038 4.01954C115.098 4.01954 116.058 4.28905 116.919 4.82807C117.779 5.36709 118.455 6.13712 118.946 7.13816C119.453 8.13919 119.707 9.30194 119.707 10.6264C119.707 11.9508 119.453 13.1213 118.946 14.1377C118.455 15.1387 117.779 15.9165 116.919 16.4709C116.058 17.0099 115.098 17.2794 114.038 17.2794C113.147 17.2794 112.356 17.0946 111.665 16.725C110.989 16.3554 110.459 15.878 110.075 15.2928V23.2394H106.135V4.20435H110.075V6.02932ZM115.697 10.6264C115.697 9.64075 115.421 8.87072 114.868 8.3163C114.33 7.74648 113.662 7.46157 112.863 7.46157C112.08 7.46157 111.412 7.74648 110.859 8.3163C110.321 8.88612 110.052 9.66385 110.052 10.6495C110.052 11.6351 110.321 12.4128 110.859 12.9827C111.412 13.5525 112.08 13.8374 112.863 13.8374C113.647 13.8374 114.315 13.5525 114.868 12.9827C115.421 12.3974 115.697 11.612 115.697 10.6264Z" fill="#333333"/>
<path d="M133.894 10.4416C133.894 10.8112 133.871 11.1962 133.825 11.5966H124.908C124.969 12.3974 125.223 13.0135 125.668 13.4447C126.129 13.8605 126.69 14.0684 127.35 14.0684C128.334 14.0684 129.017 13.6526 129.401 12.821H133.595C133.38 13.668 132.988 14.4303 132.42 15.1079C131.867 15.7856 131.168 16.3169 130.323 16.7019C129.478 17.0869 128.533 17.2794 127.489 17.2794C126.229 17.2794 125.108 17.0099 124.124 16.4709C123.141 15.9319 122.373 15.1618 121.82 14.1608C121.267 13.1598 120.991 11.9893 120.991 10.6495C120.991 9.30964 121.259 8.13919 121.797 7.13816C122.35 6.13712 123.118 5.36709 124.101 4.82807C125.085 4.28905 126.214 4.01954 127.489 4.01954C128.733 4.01954 129.839 4.28135 130.807 4.80497C131.775 5.32859 132.527 6.07552 133.065 7.04575C133.618 8.01599 133.894 9.14793 133.894 10.4416ZM129.862 9.40204C129.862 8.72441 129.632 8.18539 129.171 7.78498C128.71 7.38457 128.134 7.18436 127.443 7.18436C126.782 7.18436 126.221 7.37687 125.76 7.76188C125.315 8.14689 125.038 8.69361 124.931 9.40204H129.862Z" fill="#333333"/>
<path d="M139.913 6.35273C140.374 5.6443 140.95 5.08988 141.642 4.68947C142.333 4.27365 143.101 4.06575 143.946 4.06575V8.247H142.863C141.88 8.247 141.142 8.4626 140.651 8.89382C140.159 9.30964 139.913 10.0489 139.913 11.1115V17.0946H135.973V4.20435H139.913V6.35273Z" fill="#333333"/>
<path d="M147.673 17.2794C146.981 17.2794 146.413 17.0792 145.968 16.6788C145.537 16.263 145.322 15.7548 145.322 15.1541C145.322 14.5381 145.537 14.0222 145.968 13.6064C146.413 13.1906 146.981 12.9827 147.673 12.9827C148.349 12.9827 148.902 13.1906 149.332 13.6064C149.777 14.0222 150 14.5381 150 15.1541C150 15.7548 149.777 16.263 149.332 16.6788C148.902 17.0792 148.349 17.2794 147.673 17.2794Z" fill="#333333"/>
</svg>
