<svg width="70" height="21" viewBox="0 0 70 21" fill="none" xmlns="http://www.w3.org/2000/svg">
<path fill-rule="evenodd" clip-rule="evenodd" d="M49.285 8.35447C47.6826 8.35447 46.7748 9.76249 46.7748 9.76249H46.7403L46.877 8.49156H44.7803C44.6775 9.35014 44.4883 10.6544 44.299 11.6337L42.6485 20.3068H45.022L45.6744 16.8059H45.7258C45.7258 16.8059 46.2126 17.1172 47.1188 17.1172C49.9024 17.1172 51.7235 14.2662 51.7235 11.3824C51.7235 9.78488 51.018 8.35993 49.2789 8.35993L49.285 8.35447ZM40.0011 8.35447C37.1475 8.35447 35.2564 10.9297 35.2564 13.797C35.2564 15.6343 36.3906 17.1106 38.5223 17.1106C41.3251 17.1106 43.2157 14.6037 43.2157 11.6653C43.2157 9.96676 42.2187 8.3501 40.0011 8.3501V8.35447ZM24.2017 11.8915C23.6001 11.5654 23.2906 11.2907 23.2906 10.9127C23.2906 10.4321 23.7204 10.1262 24.3909 10.1262C25.1719 10.1262 25.8691 10.4539 25.8691 10.4539L26.4193 8.77174C26.4193 8.77174 25.9107 8.37686 24.4232 8.37686C22.3505 8.37686 20.9122 9.56205 20.9122 11.2279C20.9122 12.1716 21.5821 12.8926 22.4763 13.4071C23.1982 13.8194 23.4563 14.1116 23.4563 14.5409C23.4563 14.9871 23.0954 15.3476 22.4243 15.3476C21.4257 15.3476 20.4813 14.8326 20.4813 14.8326L19.901 16.5104C19.901 16.5104 20.7733 17.0948 22.2395 17.0948C24.3723 17.0948 25.9014 16.0478 25.9014 14.1591C25.9014 13.1466 25.1281 12.4251 24.1995 11.8925L24.2017 11.8915ZM51.7951 16.9391H54.1675L55.783 8.54345H53.3931L51.7951 16.9391ZM61.8178 8.52597H60.1663L60.2538 8.13273C60.3905 7.32986 60.8717 6.60892 61.6631 6.60892C62.0853 6.60892 62.4194 6.72908 62.4194 6.72908L62.8843 4.87484C62.8843 4.87484 62.4708 4.66893 61.5936 4.66893C60.7514 4.66893 59.9092 4.90925 59.2732 5.45924C58.4655 6.14522 58.0865 7.14143 57.8978 8.13655L57.8267 8.53198H56.7275L56.3829 10.3179H57.4822L56.2298 16.9451H58.5994L59.8545 10.3174H61.4875L61.8135 8.53143L61.8178 8.52597ZM47.0154 15.3252C46.3996 15.3252 46.0354 14.9811 46.0354 14.9811L46.4308 12.767C46.7097 11.2907 47.4808 10.3119 48.3066 10.3119C49.0285 10.3119 49.2527 10.9837 49.2527 11.6173C49.2527 13.1465 48.3388 15.3252 47.0154 15.3252ZM38.8319 15.2908C38.0241 15.2908 37.6801 14.6043 37.6801 13.7451C37.6801 12.389 38.3856 10.1743 39.6741 10.1743C40.5163 10.1743 40.7919 10.8952 40.7919 11.5943C40.7919 13.0526 40.0864 15.2864 38.8319 15.2864V15.2908ZM67.5251 8.54345C67.5251 8.54345 66.0419 12.2754 65.3758 14.3121H65.3419C65.2982 13.6567 64.7622 8.54345 64.7622 8.54345H62.2685L63.6958 16.2526C63.7286 16.4241 63.7122 16.5268 63.645 16.6475C63.3699 17.1827 62.9056 17.6961 62.3543 18.073C61.9086 18.4007 61.4099 18.6082 61.0145 18.7448L61.668 20.7547C62.1492 20.6509 63.1446 20.2577 63.9868 19.4657C65.0696 18.4553 66.0687 16.8933 67.0985 14.7632L70.0008 8.54727H67.5262L67.5251 8.54345ZM32.6942 8.35447C31.6453 8.35447 30.8206 8.85258 30.184 9.60793L30.1501 9.59045L31.0634 4.83497H28.6899L26.3876 16.9391H28.761L29.554 12.8014C29.8657 11.2339 30.6724 10.2726 31.4298 10.2726C31.9614 10.2726 32.1681 10.6331 32.1681 11.1476C32.1681 11.4736 32.1331 11.8685 32.0642 12.1962L31.1673 16.9359H33.5408L34.4678 12.0422C34.5717 11.5277 34.6406 10.91 34.6406 10.4982C34.6406 9.15843 33.9351 8.35174 32.6991 8.35174L32.6942 8.35447ZM55.1131 4.95512C54.3567 4.95512 53.7546 5.55591 53.7546 6.32819C53.7546 7.03275 54.202 7.51337 54.8724 7.51337H54.9063C55.6446 7.51337 56.279 7.01527 56.2954 6.13976C56.2954 5.45268 55.8306 4.95458 55.1087 4.95458L55.1131 4.95512ZM9.08753 7.74823L8.34377 9.95802C8.34377 9.95802 7.69134 9.61066 6.89235 9.61066C5.72093 9.61066 5.66186 10.3447 5.66186 10.5299C5.66186 11.5392 8.29619 11.9259 8.29619 14.2902C8.29619 16.1505 7.11493 17.3488 5.52241 17.3488C3.61051 17.3488 2.63323 16.1603 2.63323 16.1603L3.14512 14.4672C3.14512 14.4672 4.15138 15.3274 4.99904 15.3274C5.55139 15.3274 5.78108 14.8921 5.78108 14.5737C5.78108 13.2574 3.6209 13.1973 3.6209 11.0345C3.6209 9.21359 4.92795 7.45166 7.57157 7.45166C8.58877 7.45166 9.0919 7.74276 9.0919 7.74276L9.08753 7.74823ZM7.909 1.45528C8.01728 1.45528 8.12666 1.49187 8.23166 1.56451C7.42446 1.94301 6.55984 2.89825 6.19453 4.80602L4.65615 5.28119C5.08436 3.82674 6.09992 1.45528 7.909 1.45528ZM8.65713 2.16257C8.81245 2.55035 8.91307 3.1058 8.91307 3.85569V3.96492L6.96618 4.56734C7.34134 3.12328 8.04298 2.42527 8.65713 2.16257ZM10.5149 3.47009L9.57261 3.7612V3.55912C9.57261 2.93649 9.48675 2.4362 9.34839 2.03913C9.90512 2.10904 10.2764 2.74205 10.5149 3.47009ZM13.2947 4.30191C13.2947 4.30191 14.7959 4.41278 14.8664 4.41879C14.9375 4.42971 15.0234 4.47886 15.0371 4.57717C15.0502 4.67549 17.1682 18.9796 17.1682 18.9796L11.1345 20.279L0 18.1959C0 18.1959 1.429 7.15946 1.48314 6.77004C1.55424 6.25664 1.57174 6.23916 2.11752 6.06821L3.88012 5.52205C4.25747 3.92669 5.46061 0.780762 7.979 0.780762C8.30713 0.780762 8.6883 0.957174 8.9962 1.36298C9.02628 1.36134 9.05636 1.36025 9.08698 1.36025C10.1676 1.36025 10.7823 2.28327 11.1301 3.28276L11.7137 3.10252C11.7957 3.08067 12.0199 3.04244 12.1348 3.15714L12.9611 3.97584L13.2947 4.30573V4.30191Z" fill="#333333"/>
</svg>
